<svg width="40" height="40" viewBox="0 0 40 40" fill="none" xmlns="http://www.w3.org/2000/svg">
<rect width="40" height="40" rx="20" fill="#4CAF50" fill-opacity="0.3"/>
<circle cx="20" cy="20" r="8" fill="white"/>
<path fill-rule="evenodd" clip-rule="evenodd" d="M27.9587 20.818C27.986 20.549 28 20.2761 28 20C28 15.5817 24.4183 12 20 12C15.5817 12 12 15.5817 12 20C12 24.1421 15.148 27.549 19.182 27.9587C19.451 27.986 19.7239 28 20 28C20.4175 28 20.8275 27.968 21.2277 27.9064C24.7984 27.3564 27.5903 24.4454 27.9587 20.818ZM24.8584 17.5432L19.2024 23.2L15.808 19.8056L16.9392 18.6744L19.2024 20.9376L23.7272 16.412L24.8584 17.5432Z" fill="#4CAF50"/>
</svg>
