<svg width="40" height="40" viewBox="0 0 40 40" fill="none" xmlns="http://www.w3.org/2000/svg">
<rect width="40" height="40" rx="20" fill="#FFC107" fill-opacity="0.5"/>
<circle cx="20" cy="20" r="8" fill="white"/>
<path d="M20 28C15.5816 28 12 24.4184 12 20C12 15.5816 15.5816 12 20 12C24.4184 12 28 15.5816 28 20C28 24.4184 24.4184 28 20 28ZM20 18.8688L17.7376 16.6056L16.6056 17.7376L18.8688 20L16.6056 22.2624L17.7376 23.3944L20 21.1312L22.2624 23.3944L23.3944 22.2624L21.1312 20L23.3944 17.7376L22.2624 16.6056L20 18.8688Z" fill="#FFC107"/>
</svg>
